<svg width="32" height="32" viewBox="0 0 32 32" fill="none" xmlns="http://www.w3.org/2000/svg">
<g clip-path="url(#clip0_1_1240)">
<path d="M23.9002 0H8.09981C3.6285 0 0 3.6285 0 8.09981V23.9002C0 28.3715 3.6285 32 8.09981 32H13.5292V20.5733H9.51927V16.0044H13.5292V12.5268C13.5292 8.57 15.8891 6.37871 19.4999 6.37871C21.2298 6.37871 23.0396 6.68922 23.0396 6.68922V10.575H21.0435C19.0829 10.575 18.4708 11.7904 18.4708 13.0413V16.0044H22.8533L22.1525 20.5733H18.4708V32H23.8913C28.3626 32 31.9911 28.3715 31.9911 23.9002V8.09981C31.9911 3.6285 28.3626 0 23.8913 0H23.9002Z" fill="white"/>
<path d="M13.547 32H18.4708V31.9911L15.9956 31.1749L13.547 32Z" fill="white"/>
</g>
<defs>
<clipPath id="clip0_1_1240">
<rect width="32" height="32" fill="white"/>
</clipPath>
</defs>
</svg>
