<svg width="86" height="51" viewBox="0 0 86 51" fill="none" xmlns="http://www.w3.org/2000/svg">
<path d="M47.2293 5.1553C47.2293 4.0267 47.6776 2.94432 48.4756 2.14628C49.2737 1.34824 50.3561 0.899902 51.4847 0.899902L81.2724 0.899902C82.401 0.899902 83.4834 1.34824 84.2815 2.14628C85.0795 2.94432 85.5278 4.0267 85.5278 5.1553V34.9431C85.5278 36.0717 85.0795 37.1541 84.2815 37.9521C83.4834 38.7501 82.401 39.1985 81.2724 39.1985C80.1438 39.1985 79.0615 38.7501 78.2634 37.9521C77.4654 37.1541 77.017 36.0717 77.017 34.9431V15.4278L42.7909 49.654C41.9929 50.4517 40.9107 50.8999 39.7823 50.8999C38.6539 50.8999 37.5718 50.4517 36.7738 49.654L1.66673 14.547C0.891576 13.7444 0.462652 12.6695 0.472349 11.5537C0.482045 10.438 0.929586 9.37065 1.71857 8.58167C2.50755 7.79268 3.57486 7.34514 4.69061 7.33545C5.80636 7.32575 6.88129 7.75467 7.68387 8.52983L39.7823 40.6283L70.9999 9.4107L51.4847 9.4107C50.3561 9.4107 49.2737 8.96236 48.4756 8.16432C47.6776 7.36628 47.2293 6.2839 47.2293 5.1553Z" fill="white"/>
</svg>
